<?xml version="1.0" encoding="UTF-8"?>
<svg version="1.1" xmlns="http://www.w3.org/2000/svg" width="512" height="512">
<path d="M0 0 C0.70476471 0.00248749 1.40952942 0.00497498 2.13565063 0.00753784 C12.76568075 0.06550367 22.95438721 0.41876992 33.25 3.3125 C34.43166748 3.63516846 34.43166748 3.63516846 35.63720703 3.96435547 C54.94883419 9.40232657 73.05535888 18.10929284 88.25 31.3125 C88.79060059 31.77769043 89.33120117 32.24288086 89.88818359 32.72216797 C115.93735993 55.30113837 133.44340418 86.81671093 137.25 121.3125 C137.59646579 128.185285 137.48375535 135.07422435 137.4453125 141.953125 C137.44157533 143.93137467 137.43873169 145.90962622 137.43673706 147.88787842 C137.42915603 153.0564702 137.40955597 158.22494687 137.3873291 163.39349365 C137.36675058 168.68288619 137.35770984 173.97229759 137.34765625 179.26171875 C137.3263041 189.61202932 137.29223613 199.96225503 137.25 210.3125 C138.39831299 210.28893433 138.39831299 210.28893433 139.56982422 210.26489258 C143.08813892 210.20196121 146.60633462 210.16332571 150.125 210.125 C151.32898438 210.09986328 152.53296875 210.07472656 153.7734375 210.04882812 C162.89198209 209.97449216 172.00585584 210.472432 179.125 216.8125 C179.82367188 217.4003125 180.52234375 217.988125 181.2421875 218.59375 C186.71406249 226.00313715 187.84007259 234.43670443 187.75120544 243.40737915 C187.75673984 244.46806779 187.76227424 245.52875643 187.76797634 246.62158716 C187.78149808 250.14591844 187.76665934 253.66953109 187.75170898 257.19384766 C187.75549518 259.73256225 187.76099769 262.27127477 187.76808167 264.8099823 C187.78056848 270.97116609 187.77449692 277.13208701 187.75940608 283.29325749 C187.74248567 290.4766485 187.74576374 297.65998906 187.74950016 304.84339385 C187.75536906 317.66386652 187.74124424 330.48424076 187.71655273 343.3046875 C187.69262477 355.73018074 187.68555362 368.15554254 187.69604492 380.58105469 C187.70746598 394.13190421 187.7093703 407.68269305 187.69494683 421.23354185 C187.69342108 422.67962415 187.69190072 424.12570647 187.69038582 425.57178879 C187.689628 426.28318207 187.68887019 426.99457536 187.68808941 427.72752602 C187.68335655 432.72882767 187.68519085 437.73010212 187.68945122 442.73140335 C187.69490522 449.46694112 187.68409068 456.20227064 187.66249657 462.93778419 C187.65693835 465.40766983 187.65645451 467.87757295 187.66144943 470.34745979 C187.66741809 473.72236989 187.65486611 477.09672772 187.63768005 480.47158813 C187.64669512 481.93264321 187.64669512 481.93264321 187.65589231 483.42321455 C187.58489733 491.1059954 186.38718176 498.68915729 181.125 504.625 C180.34769531 505.54732422 180.34769531 505.54732422 179.5546875 506.48828125 C171.84545107 512.59033788 164.01728258 512.88884482 154.47914124 512.8271637 C153.09256025 512.83249569 151.70598504 512.83956513 150.31942075 512.84821075 C146.52800686 512.8667787 142.73698512 512.86055353 138.94555533 512.85005772 C134.84933521 512.84304901 130.75319429 512.85907629 126.65699768 512.87205505 C118.63969465 512.89367234 110.62253368 512.893574 102.60521109 512.88542951 C96.08757204 512.87912399 89.56997436 512.88027161 83.05233574 512.88670158 C82.123921 512.88760324 81.19550626 512.88850489 80.23895774 512.88943387 C78.35275685 512.89128512 76.46655597 512.89314768 74.5803551 512.89502143 C56.90156045 512.91159199 39.22284566 512.90288702 21.54405581 512.88603585 C5.37853103 512.87133959 -10.78680787 512.88596757 -26.95230871 512.91480602 C-43.56158447 512.9442149 -60.17077448 512.95516794 -76.78007513 512.94562382 C-78.65955673 512.94460129 -80.53903835 512.94360668 -82.41851997 512.9426403 C-83.34319901 512.94216391 -84.26787805 512.94168752 -85.22057767 512.9411967 C-91.72773715 512.93903454 -98.23481527 512.9488261 -104.74195671 512.96341133 C-112.67593816 512.98094704 -120.60968266 512.98079956 -128.54365485 512.95805968 C-132.58955875 512.94692868 -136.63504538 512.94372875 -140.68093109 512.96236038 C-144.3890025 512.97921628 -148.09629438 512.97274624 -151.80431575 512.94814359 C-153.77188 512.94098131 -155.73948709 512.95824909 -157.70697922 512.97655493 C-166.23067105 512.88718684 -172.96773482 511.38113149 -179.58023304 505.75538355 C-186.3657838 498.60837715 -187.19601276 489.92545912 -187.13768005 480.47158813 C-187.14306559 479.41401947 -187.14845113 478.35645081 -187.15399987 477.26683462 C-187.16824919 473.74108342 -187.16118299 470.21570927 -187.15405273 466.68994141 C-187.15975788 464.15476684 -187.16672269 461.61959484 -187.17485046 459.08442688 C-187.19092076 452.92368556 -187.19288561 446.76308231 -187.18763756 440.60232641 C-187.18358803 435.5921367 -187.1850487 430.58197707 -187.19038582 425.57178879 C-187.19113424 424.85736559 -187.19188266 424.14294239 -187.19265376 423.40687 C-187.19418532 421.95528384 -187.19572367 420.50369769 -187.19726873 419.05211155 C-187.21098148 405.45406861 -187.20556483 391.85608328 -187.19408352 378.25804166 C-187.18415354 365.83409063 -187.19708988 353.41028857 -187.22101771 340.98636051 C-187.24543546 328.21121679 -187.25500995 315.43614239 -187.24836498 302.66097581 C-187.24487855 295.49600223 -187.24706656 288.33114316 -187.26461601 281.16618729 C-187.28091781 274.42735704 -187.27611484 267.68885601 -187.25731087 260.95001793 C-187.25362857 258.48096839 -187.25672289 256.01189773 -187.26719666 253.54286766 C-187.28043229 250.16404594 -187.26883505 246.78616122 -187.25120544 243.40737915 C-187.26081045 242.43780388 -187.27041546 241.4682286 -187.28031152 240.46927226 C-187.19590555 232.56944855 -185.50132869 225.03803456 -180.7421875 218.59375 C-180.04351562 218.0059375 -179.34484375 217.418125 -178.625 216.8125 C-177.94179687 216.2040625 -177.25859375 215.595625 -176.5546875 214.96875 C-168.06070595 209.95280546 -159.25329422 209.92398101 -149.625 210.125 C-148.38234375 210.13853516 -147.1396875 210.15207031 -145.859375 210.16601562 C-142.82245169 210.20105705 -139.78646533 210.25018567 -136.75 210.3125 C-136.75888245 209.24191345 -136.76776489 208.1713269 -136.7769165 207.06829834 C-136.85863143 196.8910169 -136.91826346 186.71380354 -136.95724869 176.53626633 C-136.97796634 171.30610035 -137.00598812 166.07620291 -137.05175781 160.84619141 C-137.09578842 155.78218261 -137.11925541 150.71842917 -137.12950897 145.65424347 C-137.13679922 143.73930094 -137.15102873 141.82436954 -137.17292023 139.90953827 C-137.53370601 106.98908652 -127.5916383 74.44850305 -105.75 49.3125 C-105.28480957 48.77189941 -104.81961914 48.23129883 -104.34033203 47.67431641 C-86.5950285 27.20170261 -64.30703008 12.76379652 -38.375 4.875 C-37.60397949 4.64014893 -36.83295898 4.40529785 -36.03857422 4.16333008 C-24.14899282 0.7722256 -12.31934538 -0.06970982 0 0 Z M-65.27734375 81.2109375 C-95.53091491 118.0688013 -85.75 163.83478877 -85.75 210.3125 C-28.99 210.3125 27.77 210.3125 86.25 210.3125 C91.15585723 134.79517739 91.15585723 134.79517739 59.25 74.3125 C42.09225266 58.16011112 19.52364506 50.65726186 -3.8125 51.03515625 C-27.42927964 51.97107358 -49.82329497 63.4877471 -65.27734375 81.2109375 Z " fill="#000000" transform="translate(255.75,-0.3125)"/>
</svg>
